<svg width="10.3" height="12" viewBox="0 0 10.3 12" xmlns="http://www.w3.org/2000/svg" xmlns:xlink="http://www.w3.org/1999/xlink" overflow="hidden"><defs></defs><g><path d="M10.3 6.1C10.2 6.1 10.2 6 10.3 6.1L9.4 4.8C9.3 4.7 9.3 4.6 9.3 4.5 9.2 2 7.2 0 4.7 0 4.3 0 4 0 3.7 0.1 1.2 0.6-0.4 3.1 0.1 5.6 0.3 6.8 1 7.8 2 8.5L2 10.7C2 11.4 2.6 12 3.3 12L6 12C6.7 12 7.3 11.4 7.3 10.7 7.3 10.3 7.6 10 8 10 8.7 10 9.3 9.4 9.3 8.7L9.3 7.7C9.3 7.4 9.4 7.2 9.7 7.1L10 7C10.3 6.8 10.4 6.4 10.3 6.1ZM7.9 4.5C7.9 4.5 7.9 4.5 7.9 4.5L7.4 4.6C7.4 4.6 7.4 4.7 7.4 4.7 7.4 5.1 7.3 5.4 7.2 5.8L7.6 6C7.8 6.1 7.9 6.4 7.7 6.6 7.7 6.6 7.6 6.7 7.4 6.7 7.3 6.7 7.3 6.7 7.2 6.6L6.8 6.4C6.6 6.7 6.3 7 6 7.2L6.2 7.6C6.3 7.8 6.2 8 6 8.1 5.8 8.2 5.6 8.1 5.5 7.9 5.5 7.9 5.5 7.9 5.5 7.9L5.2 7.4C4.8 7.5 4.4 7.5 4 7.4L3.9 7.9C3.8 8.1 3.6 8.2 3.4 8.1 3.2 8 3.1 7.8 3.1 7.6L3.3 7.2C2.9 7 2.6 6.7 2.4 6.4L2 6.6C2 6.7 1.9 6.7 1.8 6.7 1.6 6.7 1.4 6.5 1.4 6.3 1.4 6.2 1.5 6 1.6 5.9L2 5.7C1.9 5.4 1.8 5 1.8 4.7 1.8 4.7 1.8 4.6 1.8 4.6L1.4 4.5C1.1 4.5 1 4.3 1 4 1 3.8 1.2 3.6 1.5 3.7 1.5 3.7 1.5 3.7 1.5 3.7L1.9 3.8C2 3.4 2.2 3.1 2.5 2.8L2.2 2.4C2.1 2.3 2.1 2 2.3 1.9 2.5 1.8 2.7 1.8 2.9 2L3.2 2.3C3.5 2.1 3.9 2 4.3 1.9L4.3 1.4C4.2 1.2 4.4 1 4.6 1 4.8 1 5 1.2 5 1.4L5 1.8C5.4 1.9 5.8 2 6.1 2.2L6.4 1.9C6.5 1.7 6.8 1.7 7 1.9 7.1 2 7.2 2.3 7 2.4L6.7 2.8C7 3.1 7.2 3.4 7.3 3.8L7.7 3.7C8 3.7 8.2 3.8 8.2 4 8.2 4 8.2 4 8.2 4 8.2 4.3 8.1 4.5 7.9 4.5ZM6 4.7C6 5.4 5.4 6 4.6 6 3.8 6 3.2 5.4 3.2 4.7 3.2 4 3.8 3.3 4.6 3.3 5.4 3.3 6 3.9 6 4.7Z" stroke="#4472C4" stroke-width="1.00004" fill="#FFFFFF"/></g></svg>